<?xml version="1.0" encoding="UTF-8" standalone="no"?>
<svg
   xmlns:dc="http://purl.org/dc/elements/1.1/"
   xmlns:cc="http://creativecommons.org/ns#"
   xmlns:rdf="http://www.w3.org/1999/02/22-rdf-syntax-ns#"
   xmlns:svg="http://www.w3.org/2000/svg"
   xmlns="http://www.w3.org/2000/svg"
   xmlns:sodipodi="http://sodipodi.sourceforge.net/DTD/sodipodi-0.dtd"
   xmlns:inkscape="http://www.inkscape.org/namespaces/inkscape"
   version="1.1"
   id="svg833"
   width="770"
   height="780"
   viewBox="0 0 770 780"
   sodipodi:docname="3.svg"
   inkscape:version="1.0.1 (3bc2e813f5, 2020-09-07)">
  <metadata
     id="metadata839">
    <rdf:RDF>
      <cc:Work
         rdf:about="">
        <dc:format>image/svg+xml</dc:format>
        <dc:type
           rdf:resource="http://purl.org/dc/dcmitype/StillImage" />
        <dc:title></dc:title>
      </cc:Work>
    </rdf:RDF>
  </metadata>
  <defs
     id="defs837" />
  <sodipodi:namedview
     pagecolor="#ffffff"
     bordercolor="#666666"
     borderopacity="1"
     objecttolerance="10"
     gridtolerance="10"
     guidetolerance="10"
     inkscape:pageopacity="0"
     inkscape:pageshadow="2"
     inkscape:window-width="1366"
     inkscape:window-height="705"
     id="namedview835"
     showgrid="false"
     showguides="false"
     inkscape:zoom="0.14399935"
     inkscape:cx="-594.08786"
     inkscape:cy="370.49703"
     inkscape:window-x="-8"
     inkscape:window-y="240"
     inkscape:window-maximized="1"
     inkscape:current-layer="layer3" />
  <g
     inkscape:groupmode="layer"
     id="layer2"
     inkscape:label="Image 2">
    <path
       style="fill:#27221e;fill-opacity:1;stroke:none;stroke-width:1px;stroke-linecap:butt;stroke-linejoin:miter;stroke-opacity:1"
       d="m 134.20762,652.14924 c -50.287501,28.91341 -71.508891,85.77 -93.750421,131.511 l 25.54527,-0.7307 c 17.04817,-38.0461 43.501031,-82.60318 75.583661,-116.02329 z"
       id="path1062-4"
       sodipodi:nodetypes="ccccc" />
  </g>
  <g
     inkscape:groupmode="layer"
     id="layer1"
     inkscape:label="cabelo">
    <path
       style="opacity:1;fill:#27221e;fill-opacity:1;stroke:none;stroke-width:1px;stroke-linecap:butt;stroke-linejoin:miter;stroke-opacity:1"
       d="m 240.37326,640.12047 c 60.42091,-15.79171 244.97243,5.38797 315.49863,-146.08695 33.7579,-67.39697 92.03049,-223.96655 -18.4143,-378.10742 -118.0231,-129.59246 -257.25304,-58.661723 -303.22244,3.68287 -173.339781,188.53691 -131.58478,496.74911 6.13811,520.5115 z"
       id="path859"
       sodipodi:nodetypes="ccccc" />
  </g>
  <g
     inkscape:groupmode="layer"
     inkscape:label="Image"
     id="g841">
    <path
       style="fill:#f9ab85;fill-opacity:1;stroke:none;stroke-width:1px;stroke-linecap:butt;stroke-linejoin:miter;stroke-opacity:1"
       d="m 389.74737,496.3132 c 85.55239,-4.47825 135.33585,-52.53933 142.10622,-147.16564 l -9.82097,-100.00753 c -72.58469,22.88599 -131.80094,-15.72353 -190.43027,-60.81089 -21.18679,34.15642 -48.84015,57.42793 -93.15029,63.83632 l -2.45525,101.89258 c -1.78135,97.48106 58.59375,143.32612 153.75056,142.25516 z"
       id="path845"
       sodipodi:nodetypes="ccccccc" />
    <path
       style="fill:#fffffd;fill-opacity:1;stroke:none;stroke-width:1px;stroke-linecap:butt;stroke-linejoin:miter;stroke-opacity:1"
       d="m 398.46036,288.04043 c 26.67672,-13.44018 40.71322,-23.51373 54.01035,-34.72398 6.85246,1.1947 6.72935,1.80651 22.35255,2.22441 0.72544,8.1036 -0.89547,53.6147 -39.49671,65.53849 -25.89606,5.15029 -44.5712,-2.05708 -36.86619,-33.03892 z"
       id="path847"
       sodipodi:nodetypes="ccccc" />
    <path
       style="fill:#232122;fill-opacity:1;stroke:none;stroke-width:1px;stroke-linecap:butt;stroke-linejoin:miter;stroke-opacity:1"
       d="m 398.46036,288.04043 c 7.9018,-12.71399 17.20598,-25.862 38.16828,-38.57599 l 15.84207,3.85201 c -20.75147,17.50483 -37.0815,25.51234 -54.01035,34.72398 z"
       id="path849"
       sodipodi:nodetypes="cccc" />
    <path
       style="fill:#fffffd;fill-opacity:1;stroke:none;stroke-width:1px;stroke-linecap:butt;stroke-linejoin:miter;stroke-opacity:1"
       d="m 263.51675,257.76688 c 1.73392,30.20555 12.12012,64.65559 51.25319,66.90537 35.57081,0.19668 28.29569,-36.7544 21.17647,-41.43223 -22.19287,-10.24121 -47.78157,-19.32398 -72.42966,-25.47314 z"
       id="path853"
       sodipodi:nodetypes="cccc" />
    <path
       style="fill:#232122;fill-opacity:1;stroke:none;stroke-width:1px;stroke-linecap:butt;stroke-linejoin:miter;stroke-opacity:1"
       d="M 335.94641,283.24002 C 319.6766,263.70238 300.83036,245.50896 265.97199,235.66969 l 0.92071,10.74169 -19.86535,2.89566 c -2.76096,1.64359 -0.45225,3.83332 16.4894,8.45984 26.89456,6.28997 49.49354,16.01641 72.42966,25.47314 z"
       id="path855"
       sodipodi:nodetypes="cccccc" />
    <path
       style="fill:#28221c;fill-opacity:1;stroke:none;stroke-width:1px;stroke-linecap:butt;stroke-linejoin:miter;stroke-opacity:1"
       d="m 309.45328,217.17854 c 6.74268,2.57704 28.25367,4.55277 31.2626,18.40341 -5.01712,15.43635 -35.86768,-1.2137 -52.64517,-0.80449 7.42781,-5.18327 14.3575,-10.40195 21.38257,-17.59892 z"
       id="path857"
       sodipodi:nodetypes="cccc" />
    <path
       style="fill:#17202b;fill-opacity:1;stroke:none;stroke-width:1px;stroke-linecap:butt;stroke-linejoin:miter;stroke-opacity:1"
       d="m 428.16507,270.94892 c -5.78737,23.13146 2.89959,38.07934 16.71014,46.22416 19.01577,-9.81725 31.29507,-35.64778 29.94805,-61.63222 -6.15425,-0.47545 -12.6263,-1.97408 -22.51531,-2.76695 -6.15418,4.84395 -15.53,12.49877 -24.14288,18.17501 z"
       id="path877"
       sodipodi:nodetypes="ccccc" />
    <path
       style="fill:#1b212d;fill-opacity:1;stroke:none;stroke-width:1px;stroke-linecap:butt;stroke-linejoin:miter;stroke-opacity:1"
       d="m 293.95404,266.52987 c -12.58926,18.57164 -1.88422,52.89674 20.61641,57.18342 31.80699,4.15398 30.97666,-32.01605 21.37596,-40.47327 -15.01129,-7.14018 -28.96579,-12.16204 -41.99237,-16.71015 z"
       id="path881"
       sodipodi:nodetypes="cccc" />
    <path
       style="fill:none;stroke:#000000;stroke-width:4.40315;stroke-linecap:butt;stroke-linejoin:miter;stroke-miterlimit:4;stroke-dasharray:none;stroke-opacity:1"
       d="m 382.99938,313.50471 c -5.11967,18.34149 -4.57748,37.49064 7.9178,58.31476 3.42218,12.87543 -4.06922,16.68333 -10.74448,17.66337 -14.28827,3.29639 -23.78697,-2.55663 -31.02214,-5.89778"
       id="path883"
       sodipodi:nodetypes="cccc" />
    <path
       style="fill:#1b212d;fill-opacity:1;stroke:none;stroke-width:0.790951px;stroke-linecap:butt;stroke-linejoin:miter;stroke-opacity:1"
       d="m 331.52426,437.5011 c -7.2954,-3.20204 -0.53747,-4.667 3.03821,-3.5299 24.88477,3.1681 45.45318,3.63589 66.84058,4.61602 3.09791,0.0886 6.14759,2.5092 0.43403,3.80143 -26.94254,2.39077 -50.31462,0.68643 -70.31282,-4.88755 z"
       id="path887"
       sodipodi:nodetypes="ccccc" />
    <path
       style="fill:#f9ab85;fill-opacity:1;stroke:none;stroke-width:1px;stroke-linecap:butt;stroke-linejoin:miter;stroke-opacity:1"
       d="m 522.03262,249.14003 6.75192,100.92825 c 18.05191,-0.64729 56.49792,-13.60118 51.68038,-58.64668 -2.88088,-31.63256 -35.29063,-45.29018 -58.4323,-42.28157 z"
       id="path889"
       sodipodi:nodetypes="cccc" />
    <path
       style="fill:#f9ab85;fill-opacity:1;stroke:none;stroke-width:1.0385px;stroke-linecap:butt;stroke-linejoin:miter;stroke-opacity:1"
       d="m 241.52111,252.47237 -5.37573,97.946 c -23.15908,8.86703 -60.09971,-12.67545 -54.90206,-57.70316 3.10818,-31.62008 35.31022,-43.25026 60.27779,-40.24284 z"
       id="path889-9-2"
       sodipodi:nodetypes="cccc" />
    <path
       style="fill:#17202b;fill-opacity:1;stroke:none;stroke-width:1px;stroke-linecap:butt;stroke-linejoin:miter;stroke-opacity:1"
       d="m 531.04178,312.19077 c 0.066,-1.6276 -3.00259,-18.705 8.46358,-33.20328 2.40379,-2.78442 -1.37064,-5.77162 -3.47223,-4.12328 -11.59892,11.80471 -10.33511,33.22832 -10.1997,36.67551 0.25105,4.66843 5.09317,3.1797 5.20835,0.65105 z"
       id="path921"
       sodipodi:nodetypes="ccccc" />
    <path
       style="fill:#17202b;fill-opacity:1;stroke:none;stroke-width:0.644351px;stroke-linecap:butt;stroke-linejoin:miter;stroke-opacity:1"
       d="m 532.27372,295.92201 c -0.15483,0.83274 7.04016,4.54897 9.62357,15.11543 1.48619,1.1833 3.12571,0.37936 3.55325,-1.13726 0.15486,-9.93608 -8.09283,-16.65994 -11.19141,-18.19339 -2.22832,-2.025 -3.05312,3.02645 -1.98541,4.21522 z"
       id="path921-4"
       sodipodi:nodetypes="ccccc"
       inkscape:transform-center-x="2.4098727"
       inkscape:transform-center-y="-10.379689" />
    <path
       style="fill:#17202b;fill-opacity:1;stroke:none;stroke-width:1px;stroke-linecap:butt;stroke-linejoin:miter;stroke-opacity:1"
       d="m 216.23372,280.67459 c 0.9011,1.357 12.48142,13.38936 11.69725,31.85713 -0.31397,3.66505 4.03477,4.10111 4.77025,1.53347 2.47143,-18.03158 -9.73572,-34.41554 -11.86711,-35.91789 -2.94129,-3.63401 -5.99011,0.41162 -4.60039,2.52729 z"
       id="path921-5"
       sodipodi:nodetypes="ccccc"
       inkscape:transform-center-x="3.0643627"
       inkscape:transform-center-y="9.2071047" />
    <path
       style="fill:#17202b;fill-opacity:1;stroke:none;stroke-width:0.580703px;stroke-linecap:butt;stroke-linejoin:miter;stroke-opacity:1"
       d="m 216.86655,314.09977 c 0.57584,-0.7832 2.42353,-11.27132 10.52794,-16.91293 1.87532,-0.90804 0.6719,-3.50635 -0.78168,-3.14226 -11.63312,2.92406 -13.85621,15.84596 -13.45572,17.98411 -0.9775,2.61691 3.05288,3.42432 3.70946,2.07108 z"
       id="path921-5-8"
       sodipodi:nodetypes="ccccc"
       inkscape:transform-center-x="-5.4028081"
       inkscape:transform-center-y="-1.0661632" />
    <path
       style="fill:#f39565;fill-opacity:1;stroke:none;stroke-width:1px;stroke-linecap:butt;stroke-linejoin:miter;stroke-opacity:1"
       d="m 309.89931,482.76965 -0.61498,21.23698 143.6571,0.81574 0.33941,-23.44204 c 0,0 -60.79395,21.24692 -143.38153,1.38932 z"
       id="path970"
       sodipodi:nodetypes="ccccc" />
  </g>
  <g
     inkscape:groupmode="layer"
     id="layer3"
     inkscape:label="roupa"
     style="opacity:0.997">
    <path
       style="fill:#7bb29b;fill-opacity:1;stroke:none;stroke-width:1px;stroke-linecap:butt;stroke-linejoin:miter;stroke-opacity:1"
       d="m 283.88535,503.84844 -0.43401,98.38859 C 150.8296,620.90755 104.75718,699.52316 66.002469,782.92954 l 679.690611,-0.868 c -47.145,-77.6201 -86.2914,-158.63962 -260.41793,-182.29253 l -7.37851,-95.05251 z"
       id="path974"
       sodipodi:nodetypes="ccccccc" />
    <path
       style="fill:#1a212d;fill-opacity:1;stroke:none;stroke-width:1px;stroke-linecap:butt;stroke-linejoin:miter;stroke-opacity:1"
       d="m 304.22024,603.34876 c 54.19857,-2.12064 108.26686,-3.24134 162.12731,-2.76692 3.75786,-0.30181 5.25443,3.40345 -0.37647,3.67641 -58.97505,2.47786 -111.21432,2.69273 -162.1215,2.46007 -6.77005,-0.0962 -2.06223,-2.98037 0.37066,-3.36956 z"
       id="path981"
       sodipodi:nodetypes="ccccc" />
    <path
       style="opacity:0.997;fill:#1a212d;fill-opacity:1;stroke:none;stroke-width:0.709139px;stroke-linecap:butt;stroke-linejoin:miter;stroke-opacity:1"
       d="m 446.28647,516.98942 c 1.63161,27.35214 2.26539,54.59541 1.30745,81.66503 0.26777,1.90317 -3.4474,2.49532 -3.6695,-0.34868 -1.94557,-29.77006 -1.69082,-56.05414 -1.00095,-81.64881 0.15652,-3.40099 2.99604,-0.90808 3.363,0.33246 z"
       id="path981-0"
       sodipodi:nodetypes="ccccc" />
    <path
       style="opacity:0.997;fill:#1a212d;fill-opacity:1;stroke:none;stroke-width:0.709139px;stroke-linecap:butt;stroke-linejoin:miter;stroke-opacity:1"
       d="m 403.38074,518.67286 c 1.63161,27.35214 2.26539,54.59541 1.30744,81.66503 0.26778,1.90317 -3.44739,2.49532 -3.66949,-0.34868 -1.94557,-29.77006 -1.69082,-56.05414 -1.00094,-81.64881 0.15651,-3.40099 2.99602,-0.90808 3.36299,0.33246 z"
       id="path981-0-8"
       sodipodi:nodetypes="ccccc" />
    <path
       style="opacity:0.997;fill:#1a212d;fill-opacity:1;stroke:none;stroke-width:0.709139px;stroke-linecap:butt;stroke-linejoin:miter;stroke-opacity:1"
       d="m 360.97134,518.75467 c 2.56254,27.28067 4.1241,54.48654 4.08895,81.57307 0.33246,1.89294 -3.36038,2.61132 -3.67925,-0.22346 -2.95867,-29.68649 -3.59955,-55.96399 -3.78206,-81.56731 0.0406,-3.40435 2.96336,-1.00962 3.37236,0.2177 z"
       id="path981-0-8-6"
       sodipodi:nodetypes="ccccc" />
    <path
       style="opacity:0.997;fill:#1a212d;fill-opacity:1;stroke:none;stroke-width:0.709139px;stroke-linecap:butt;stroke-linejoin:miter;stroke-opacity:1"
       d="m 321.92771,519.98822 c 3.11547,27.22306 5.22865,54.39164 5.74304,81.47332 0.3708,1.88581 -3.30672,2.67896 -3.68303,-0.14875 -3.56034,-29.62036 -4.7342,-55.87944 -5.4361,-81.47379 -0.0286,-3.40447 2.94226,-1.06954 3.3761,0.14925 z"
       id="path981-0-8-6-0"
       sodipodi:nodetypes="ccccc" />
    <path
       style="fill:#1a212d;fill-opacity:1;stroke:none;stroke-width:1px;stroke-linecap:butt;stroke-linejoin:miter;stroke-opacity:1"
       d="m 205.49768,782.36354 c 4.03219,-16.9087 7.64029,-36.8074 9.36062,-56.3171 0.33533,-4.5749 -4.1608,-2.5188 -4.60358,-0.3069 -4.42142,18.3405 -6.64842,37.9208 -8.20972,56.5473 z"
       id="path1043"
       sodipodi:nodetypes="ccccc" />
    <path
       style="opacity:0.997;fill:#1a212d;fill-opacity:1;stroke:none;stroke-width:1.05735px;stroke-linecap:butt;stroke-linejoin:miter;stroke-opacity:1"
       d="m 593.93345,782.45314 c -6.68383,-17.9155 -13.41067,-39.1622 -18.18595,-60.2547 -1.05158,-4.9558 3.77321,-3.3531 4.56274,-0.9973 7.29765,19.4255 12.59144,40.5225 17.06926,60.6719 z"
       id="path1043-4"
       sodipodi:nodetypes="ccccc" />
    <path
       style="fill:#7bb29b;fill-opacity:1;stroke:none;stroke-width:1px;stroke-linecap:butt;stroke-linejoin:miter;stroke-opacity:1"
       d="m 141.58613,666.90625 c -12.3576,-9.4039 -25.92903,-49.85231 16.26597,-90.94932 8.49517,13.42342 17.00167,28.89231 45.04063,49.55432 -23.25063,14.29927 -44.04175,24.93489 -61.3066,41.395 z"
       id="path1060"
       sodipodi:nodetypes="cccc" />
    <path
       style="fill:#1a212d;fill-opacity:1;stroke:#000000;stroke-width:1px;stroke-linecap:butt;stroke-linejoin:miter;stroke-opacity:1"
       d="m 141.58613,666.90625 c 17.19212,-13.5163 31.46853,-26.77905 61.3066,-41.395 4.18782,-1.69592 4.5879,2.27023 2.40334,3.61486 -24.7818,11.2788 -46.04277,29.81246 -61.41521,40.7988 -2.24056,1.69036 -4.96095,-0.61606 -2.29473,-3.01866 z"
       id="path1079"
       sodipodi:nodetypes="ccccc" />
    <path
       style="opacity:0.997;fill:#1a212d;fill-opacity:1;stroke:none;stroke-width:0.891288px;stroke-linecap:butt;stroke-linejoin:miter;stroke-opacity:1"
       d="m 200.19491,626.83542 c -14.28664,-13.25654 -27.94226,-23.97858 -44.96577,-48.22763 -2.07687,-3.4533 1.35308,-4.3628 2.84073,-2.62598 13.38256,20.26068 32.64871,36.39932 44.45695,48.40708 1.79938,1.73765 0.15305,4.45938 -2.33191,2.44653 z"
       id="path1079-3"
       sodipodi:nodetypes="ccccc" />
  </g>
</svg>
